<svg width="171" height="50" viewBox="0 0 171 50" fill="none" xmlns="http://www.w3.org/2000/svg">
<g id="appstore">
<g id="Group">
<path id="Vector" d="M169.388 44.2238C169.388 46.841 167.224 48.961 164.547 48.961H6.12464C3.44909 48.961 1.27734 46.841 1.27734 44.2238V6.44647C1.27734 3.83052 3.44909 1.70312 6.12464 1.70312H164.546C167.224 1.70312 169.387 3.83052 169.387 6.44647L169.388 44.2238Z" fill="black"/>
<path id="path16" d="M164.037 1.76132C166.952 1.76132 169.324 4.07415 169.324 6.91645V43.7498C169.324 46.5921 166.952 48.9049 164.037 48.9049H6.6293C3.71412 48.9049 1.34199 46.5921 1.34199 43.7498V6.91645C1.34199 4.07415 3.71412 1.76132 6.6293 1.76132H164.037ZM164.037 0.777564H6.6293C3.16792 0.777564 0.333008 3.5416 0.333008 6.91645V43.7498C0.333008 47.1246 3.16792 49.8887 6.6293 49.8887H164.037C167.498 49.8887 170.333 47.1246 170.333 43.7498V6.91645C170.333 3.5416 167.498 0.777564 164.037 0.777564Z" fill="#A6A6A6"/>
<g id="Group_2">
<g id="Group_3">
<g id="Vector_2">
<path d="M38.272 25.0674C38.2355 21.1103 41.5952 19.1851 41.7489 19.0955C39.8461 16.3907 36.8969 16.0212 35.8606 15.9917C33.3836 15.7375 30.9809 17.4368 29.7192 17.4368C28.4322 17.4368 26.4892 16.0162 24.395 16.058C21.7002 16.0985 19.1792 17.6197 17.7965 19.982C14.943 24.7985 17.0712 31.8767 19.805 35.77C21.1726 37.6767 22.7706 39.8057 24.8622 39.7308C26.9085 39.6485 27.6729 38.4588 30.1423 38.4588C32.589 38.4588 33.3068 39.7308 35.44 39.6829C37.6361 39.6485 39.0188 37.7675 40.3385 35.8436C41.9189 33.6582 42.5535 31.5059 42.5787 31.3954C42.5271 31.3782 38.3136 29.8103 38.272 25.0674Z" fill="white"/>
<path d="M34.2424 13.4305C35.343 12.0886 36.096 10.2629 35.887 8.41016C34.294 8.47891 32.3019 9.48446 31.1547 10.797C30.1397 11.9535 29.2331 13.8492 29.4673 15.6319C31.2567 15.7621 33.094 14.7516 34.2424 13.4305Z" fill="white"/>
</g>
</g>
</g>
<g id="Group_4">
<path id="Vector_3" d="M67.8861 39.4584H65.0263L63.4598 34.659H58.0147L56.5225 39.4584H53.7383L59.1329 23.1191H62.4649L67.8861 39.4584ZM62.9875 32.6455L61.5709 28.3789C61.421 27.9431 61.1402 26.9167 60.7259 25.3009H60.6755C60.5106 25.9958 60.2449 27.0222 59.8797 28.3789L58.4882 32.6455H62.9875Z" fill="white"/>
<path id="Vector_4" d="M81.7589 33.4215C81.7589 35.4252 81.2036 37.009 80.0929 38.1717C79.0981 39.2068 77.8627 39.7236 76.3881 39.7236C74.7964 39.7236 73.653 39.1662 72.9567 38.0514H72.9063V44.2578H70.2215V31.554C70.2215 30.2943 70.1876 29.0015 70.1221 27.6755H72.4832L72.633 29.5429H72.6834C73.5787 28.1359 74.9375 27.4336 76.7609 27.4336C78.1864 27.4336 79.3764 27.9824 80.3284 29.0813C81.2829 30.1814 81.7589 31.6277 81.7589 33.4215ZM79.0238 33.5172C79.0238 32.3705 78.7593 31.4251 78.2279 30.6811C77.6474 29.9051 76.8679 29.5171 75.8907 29.5171C75.2284 29.5171 74.6264 29.7332 74.0887 30.1593C73.5498 30.589 73.1972 31.1501 73.0322 31.845C72.9491 32.1691 72.9075 32.4343 72.9075 32.6431V34.6075C72.9075 35.4645 73.177 36.1876 73.716 36.7782C74.255 37.3688 74.9551 37.6634 75.8164 37.6634C76.8276 37.6634 77.6147 37.2828 78.1776 36.5241C78.7417 35.7641 79.0238 34.7622 79.0238 33.5172Z" fill="white"/>
<path id="Vector_5" d="M95.658 33.4215C95.658 35.4252 95.1027 37.009 93.9908 38.1717C92.9972 39.2068 91.7619 39.7236 90.2873 39.7236C88.6956 39.7236 87.5522 39.1662 86.8571 38.0514H86.8067V44.2578H84.1219V31.554C84.1219 30.2943 84.0879 29.0015 84.0225 27.6755H86.3836L86.5334 29.5429H86.5838C87.4779 28.1359 88.8366 27.4336 90.6613 27.4336C92.0855 27.4336 93.2755 27.9824 94.23 29.0813C95.1808 30.1814 95.658 31.6277 95.658 33.4215ZM92.9229 33.5172C92.9229 32.3705 92.6572 31.4251 92.1258 30.6811C91.5453 29.9051 90.7683 29.5171 89.7899 29.5171C89.1262 29.5171 88.5256 29.7332 87.9866 30.1593C87.4476 30.589 87.0963 31.1501 86.9313 31.845C86.8495 32.1691 86.8067 32.4343 86.8067 32.6431V34.6075C86.8067 35.4645 87.0762 36.1876 87.6126 36.7782C88.1516 37.3675 88.8517 37.6634 89.7156 37.6634C90.7268 37.6634 91.5138 37.2828 92.0767 36.5241C92.6408 35.7641 92.9229 34.7622 92.9229 33.5172Z" fill="white"/>
<path id="Vector_6" d="M111.197 34.8755C111.197 36.2654 110.702 37.3962 109.709 38.2691C108.617 39.2231 107.097 39.6995 105.144 39.6995C103.341 39.6995 101.895 39.3606 100.801 38.6816L101.423 36.4999C102.602 37.1948 103.895 37.5435 105.304 37.5435C106.315 37.5435 107.102 37.32 107.668 36.8756C108.23 36.4311 108.511 35.8344 108.511 35.0904C108.511 34.4274 108.28 33.8687 107.815 33.4157C107.353 32.9626 106.581 32.5415 105.503 32.1523C102.569 31.0854 101.103 29.5224 101.103 27.4671C101.103 26.1239 101.617 25.0226 102.646 24.1656C103.671 23.3074 105.038 22.8789 106.748 22.8789C108.273 22.8789 109.54 23.138 110.551 23.6549L109.88 25.7887C108.936 25.2878 107.868 25.0373 106.673 25.0373C105.728 25.0373 104.99 25.2645 104.461 25.7163C104.014 26.1202 103.79 26.6126 103.79 27.1958C103.79 27.8416 104.046 28.3757 104.56 28.7956C105.007 29.1835 105.819 29.6034 106.998 30.0565C108.439 30.6225 109.498 31.2843 110.18 32.043C110.858 32.7994 111.197 33.746 111.197 34.8755Z" fill="white"/>
<path id="Vector_7" d="M120.074 29.6413H117.115V35.3615C117.115 36.8164 117.636 37.5433 118.681 37.5433C119.161 37.5433 119.559 37.5027 119.874 37.4217L119.948 39.4095C119.419 39.6022 118.723 39.6992 117.86 39.6992C116.8 39.6992 115.971 39.3837 115.373 38.7538C114.778 38.1228 114.478 37.0644 114.478 35.5776V29.6388H112.715V27.6744H114.478V25.5172L117.115 24.7412V27.6744H120.074V29.6413Z" fill="white"/>
<path id="Vector_8" d="M133.426 33.4701C133.426 35.281 132.894 36.7679 131.834 37.9306C130.722 39.1277 129.246 39.7244 127.406 39.7244C125.633 39.7244 124.222 39.151 123.169 38.0043C122.116 36.8575 121.59 35.41 121.59 33.6653C121.59 31.8396 122.131 30.3442 123.218 29.1814C124.302 28.0175 125.766 27.4355 127.605 27.4355C129.378 27.4355 130.805 28.0089 131.882 29.1569C132.912 30.2705 133.426 31.7082 133.426 33.4701ZM130.64 33.5548C130.64 32.4682 130.402 31.5363 129.92 30.7591C129.357 29.8187 128.552 29.3497 127.51 29.3497C126.43 29.3497 125.611 29.8199 125.048 30.7591C124.565 31.5376 124.327 32.4842 124.327 33.6039C124.327 34.6905 124.565 35.6224 125.048 36.3983C125.628 37.3388 126.439 37.8078 127.486 37.8078C128.511 37.8078 129.315 37.329 129.896 36.3738C130.391 35.5819 130.64 34.6401 130.64 33.5548Z" fill="white"/>
<path id="Vector_9" d="M142.153 29.9776C141.887 29.9297 141.604 29.9051 141.306 29.9051C140.362 29.9051 139.632 30.2526 139.118 30.9487C138.671 31.5626 138.447 32.3386 138.447 33.2754V39.4572H135.763L135.788 31.3858C135.788 30.0279 135.754 28.7915 135.688 27.6767H138.026L138.124 29.9309H138.198C138.482 29.1562 138.929 28.5325 139.541 28.0647C140.139 27.6435 140.785 27.4336 141.481 27.4336C141.729 27.4336 141.954 27.4508 142.153 27.4815V29.9776Z" fill="white"/>
<path id="Vector_10" d="M154.159 33.0095C154.159 33.4786 154.127 33.8739 154.061 34.1968H146.006C146.038 35.3607 146.427 36.2509 147.175 36.8648C147.854 37.4136 148.731 37.6886 149.809 37.6886C151.002 37.6886 152.09 37.5032 153.068 37.1312L153.489 38.9483C152.346 39.4345 150.996 39.6764 149.438 39.6764C147.564 39.6764 146.093 39.1386 145.023 38.0643C143.955 36.99 143.42 35.5474 143.42 33.7376C143.42 31.961 143.917 30.4816 144.913 29.3017C145.956 28.042 147.365 27.4121 149.138 27.4121C150.88 27.4121 152.198 28.042 153.094 29.3017C153.803 30.3023 154.159 31.5399 154.159 33.0095ZM151.599 32.3306C151.616 31.5546 151.441 30.8843 151.077 30.3183C150.613 29.5902 149.899 29.2268 148.938 29.2268C148.06 29.2268 147.346 29.5816 146.801 30.2937C146.354 30.8597 146.088 31.5387 146.006 32.3294H151.599V32.3306Z" fill="white"/>
</g>
<g id="Group_5">
<g id="Group_6">
<path id="Vector_11" d="M62.0993 13.0671C62.0993 14.5121 61.6548 15.6 60.767 16.3305C59.9447 17.0045 58.7761 17.3422 57.2625 17.3422C56.512 17.3422 55.8697 17.3103 55.332 17.2464V9.35057C56.0334 9.24007 56.789 9.18359 57.605 9.18359C59.0468 9.18359 60.1336 9.48931 60.8665 10.1007C61.6875 10.792 62.0993 11.7803 62.0993 13.0671ZM60.7078 13.1027C60.7078 12.1659 60.4534 11.4476 59.9447 10.9467C59.436 10.447 58.693 10.1965 57.7146 10.1965C57.299 10.1965 56.9451 10.2235 56.6517 10.28V16.2826C56.8142 16.3072 57.1114 16.3182 57.5433 16.3182C58.5532 16.3182 59.3327 16.0444 59.8817 15.4968C60.4308 14.9492 60.7078 14.1512 60.7078 13.1027Z" fill="white"/>
<path id="Vector_12" d="M69.4771 14.3291C69.4771 15.2192 69.2164 15.9485 68.6951 16.5207C68.1486 17.1088 67.4245 17.4022 66.5203 17.4022C65.6489 17.4022 64.9551 17.1211 64.4375 16.5563C63.9212 15.9927 63.6631 15.2818 63.6631 14.4249C63.6631 13.5286 63.9288 12.7931 64.4627 12.2222C64.9966 11.6513 65.7144 11.3652 66.6186 11.3652C67.49 11.3652 68.1901 11.6464 68.7203 12.2099C69.224 12.7575 69.4771 13.4647 69.4771 14.3291ZM68.1083 14.3708C68.1083 13.8368 67.9899 13.3788 67.7544 12.997C67.4774 12.5353 67.0832 12.3045 66.5707 12.3045C66.0406 12.3045 65.6376 12.5353 65.3606 12.997C65.1238 13.3788 65.0067 13.8441 65.0067 14.3942C65.0067 14.9282 65.1251 15.3862 65.3606 15.768C65.6464 16.2297 66.0443 16.4605 66.5581 16.4605C67.0618 16.4605 67.4572 16.226 67.7418 15.7558C67.9861 15.3666 68.1083 14.9049 68.1083 14.3708Z" fill="white"/>
<path id="Vector_13" d="M79.3703 11.4834L77.5129 17.2711H76.304L75.5346 14.7579C75.3394 14.1305 75.1807 13.5068 75.0573 12.888H75.0334C74.9188 13.524 74.7601 14.1464 74.5561 14.7579L73.7389 17.2711H72.5161L70.7695 11.4834H72.1258L72.7969 14.2348C72.9594 14.8856 73.0929 15.5056 73.1999 16.0925H73.2238C73.322 15.6087 73.4845 14.9924 73.7137 14.2471L74.5561 11.4846H75.6315L76.4387 14.1882C76.6339 14.8475 76.7926 15.4823 76.9147 16.0937H76.9512C77.0406 15.4982 77.1754 14.8635 77.3542 14.1882L78.0745 11.4846H79.3703V11.4834Z" fill="white"/>
<path id="Vector_14" d="M86.212 17.2706H84.8923V13.9556C84.8923 12.9341 84.4944 12.4234 83.696 12.4234C83.3044 12.4234 82.9883 12.5633 82.7428 12.8445C82.4997 13.1256 82.3763 13.4571 82.3763 13.8365V17.2694H81.0566V13.1367C81.0566 12.6284 81.0403 12.0771 81.0088 11.4804H82.1686L82.2303 12.3853H82.2668C82.4204 12.1041 82.6496 11.8721 82.9506 11.6867C83.3082 11.4706 83.7086 11.3613 84.1469 11.3613C84.7009 11.3613 85.1618 11.5357 85.5283 11.8856C85.9841 12.3141 86.212 12.9538 86.212 13.8034V17.2706Z" fill="white"/>
<path id="Vector_15" d="M89.8507 17.2706H88.5322V8.82715H89.8507V17.2706Z" fill="white"/>
<path id="Vector_16" d="M97.6206 14.3291C97.6206 15.2192 97.36 15.9485 96.8386 16.5207C96.2921 17.1088 95.5668 17.4022 94.6639 17.4022C93.7912 17.4022 93.0974 17.1211 92.5811 16.5563C92.0648 15.9927 91.8066 15.2818 91.8066 14.4249C91.8066 13.5286 92.0723 12.7931 92.6063 12.2222C93.1402 11.6513 93.858 11.3652 94.7609 11.3652C95.6335 11.3652 96.3324 11.6464 96.8638 12.2099C97.3675 12.7575 97.6206 13.4647 97.6206 14.3291ZM96.2506 14.3708C96.2506 13.8368 96.1322 13.3788 95.8967 12.997C95.6209 12.5353 95.2255 12.3045 94.7143 12.3045C94.1829 12.3045 93.7799 12.5353 93.5041 12.997C93.2674 13.3788 93.1503 13.8441 93.1503 14.3942C93.1503 14.9282 93.2686 15.3862 93.5041 15.768C93.79 16.2297 94.1879 16.4605 94.7017 16.4605C95.2054 16.4605 95.5995 16.226 95.8841 15.7558C96.1297 15.3666 96.2506 14.9049 96.2506 14.3708Z" fill="white"/>
<path id="Vector_17" d="M104.007 17.2708H102.822L102.724 16.6042H102.687C102.282 17.1358 101.704 17.4022 100.953 17.4022C100.393 17.4022 99.9397 17.2266 99.5985 16.878C99.2887 16.5612 99.1338 16.1671 99.1338 15.6993C99.1338 14.9921 99.436 14.4531 100.044 14.0798C100.651 13.7066 101.505 13.5237 102.604 13.5323V13.4242C102.604 12.6618 102.194 12.2812 101.371 12.2812C100.786 12.2812 100.27 12.4248 99.8239 12.7097L99.5556 11.8649C100.107 11.5322 100.788 11.3652 101.592 11.3652C103.143 11.3652 103.921 12.1633 103.921 13.7594V15.8908C103.921 16.4691 103.95 16.9295 104.007 17.2708ZM102.637 15.2818V14.3893C101.181 14.3647 100.453 14.7539 100.453 15.5556C100.453 15.8577 100.537 16.0836 100.707 16.2346C100.877 16.3856 101.093 16.4605 101.351 16.4605C101.641 16.4605 101.912 16.3709 102.159 16.1929C102.407 16.0136 102.559 15.7865 102.616 15.5078C102.629 15.4451 102.637 15.369 102.637 15.2818Z" fill="white"/>
<path id="Vector_18" d="M111.507 17.2706H110.335L110.274 16.3411H110.237C109.863 17.0483 109.226 17.4019 108.331 17.4019C107.615 17.4019 107.02 17.1282 106.548 16.5806C106.075 16.033 105.84 15.3221 105.84 14.4491C105.84 13.5123 106.095 12.7536 106.609 12.1741C107.107 11.6338 107.716 11.3637 108.441 11.3637C109.239 11.3637 109.796 11.6253 110.114 12.1495H110.139V8.82715H111.46V15.7113C111.46 16.2748 111.475 16.7942 111.507 17.2706ZM110.139 14.8298V13.8647C110.139 13.6977 110.126 13.5627 110.102 13.4596C110.028 13.1502 109.868 12.8899 109.625 12.6799C109.38 12.47 109.084 12.3644 108.742 12.3644C108.25 12.3644 107.865 12.5547 107.581 12.9365C107.301 13.3184 107.158 13.8058 107.158 14.4013C107.158 14.9734 107.293 15.4375 107.564 15.7948C107.85 16.1754 108.235 16.3657 108.717 16.3657C109.15 16.3657 109.497 16.2073 109.76 15.8893C110.014 15.5959 110.139 15.2423 110.139 14.8298Z" fill="white"/>
<path id="Vector_19" d="M122.793 14.3291C122.793 15.2192 122.533 15.9485 122.011 16.5207C121.465 17.1088 120.742 17.4022 119.837 17.4022C118.967 17.4022 118.273 17.1211 117.754 16.5563C117.238 15.9927 116.979 15.2818 116.979 14.4249C116.979 13.5286 117.245 12.7931 117.779 12.2222C118.313 11.6513 119.031 11.3652 119.936 11.3652C120.806 11.3652 121.508 11.6464 122.037 12.2099C122.54 12.7575 122.793 13.4647 122.793 14.3291ZM121.426 14.3708C121.426 13.8368 121.308 13.3788 121.072 12.997C120.794 12.5353 120.401 12.3045 119.887 12.3045C119.358 12.3045 118.955 12.5353 118.677 12.997C118.44 13.3788 118.323 13.8441 118.323 14.3942C118.323 14.9282 118.441 15.3862 118.677 15.768C118.963 16.2297 119.361 16.4605 119.875 16.4605C120.378 16.4605 120.775 16.226 121.059 15.7558C121.303 15.3666 121.426 14.9049 121.426 14.3708Z" fill="white"/>
<path id="Vector_20" d="M129.889 17.2706H128.57V13.9556C128.57 12.9341 128.172 12.4234 127.373 12.4234C126.981 12.4234 126.665 12.5633 126.421 12.8445C126.176 13.1256 126.054 13.4571 126.054 13.8365V17.2694H124.733V13.1367C124.733 12.6284 124.718 12.0771 124.687 11.4804H125.845L125.907 12.3853H125.943C126.098 12.1041 126.327 11.8721 126.627 11.6867C126.986 11.4706 127.385 11.3613 127.825 11.3613C128.377 11.3613 128.838 11.5357 129.205 11.8856C129.662 12.3141 129.889 12.9538 129.889 13.8034V17.2706Z" fill="white"/>
<path id="Vector_21" d="M138.771 12.4472H137.317V15.2588C137.317 15.9734 137.576 16.3307 138.087 16.3307C138.324 16.3307 138.52 16.311 138.675 16.2705L138.709 17.2466C138.448 17.3424 138.106 17.3902 137.684 17.3902C137.163 17.3902 136.757 17.2355 136.464 16.9261C136.169 16.6167 136.023 16.0962 136.023 15.3656V12.4472H135.155V11.4834H136.023V10.4226L137.316 10.042V11.4822H138.769V12.4472H138.771Z" fill="white"/>
<path id="Vector_22" d="M145.757 17.2706H144.436V13.9801C144.436 12.9427 144.038 12.4233 143.241 12.4233C142.629 12.4233 142.211 12.7241 141.982 13.3257C141.943 13.4522 141.92 13.6069 141.92 13.7886V17.2693H140.602V8.82715H141.92V12.3153H141.945C142.361 11.6805 142.956 11.3637 143.728 11.3637C144.275 11.3637 144.727 11.5381 145.086 11.888C145.533 12.3239 145.757 12.9721 145.757 13.8291V17.2706Z" fill="white"/>
<path id="Vector_23" d="M152.963 14.1035C152.963 14.3343 152.945 14.5283 152.914 14.6867H148.956C148.974 15.2588 149.163 15.6947 149.529 15.9967C149.864 16.2668 150.296 16.4019 150.825 16.4019C151.41 16.4019 151.944 16.311 152.425 16.1281L152.632 17.0219C152.069 17.2601 151.407 17.3792 150.64 17.3792C149.721 17.3792 148.996 17.1152 148.473 16.5873C147.946 16.0593 147.686 15.3509 147.686 14.462C147.686 13.589 147.929 12.8622 148.418 12.2827C148.93 11.6639 149.621 11.3545 150.494 11.3545C151.347 11.3545 151.996 11.6639 152.434 12.2827C152.788 12.7738 152.963 13.3816 152.963 14.1035ZM151.704 13.7708C151.714 13.3889 151.627 13.0599 151.448 12.7824C151.219 12.4251 150.87 12.2459 150.398 12.2459C149.967 12.2459 149.616 12.4202 149.348 12.7701C149.129 13.0488 148.999 13.3816 148.956 13.7708H151.704Z" fill="white"/>
</g>
</g>
</g>
</g>
</svg>
