<svg width="13" height="13" viewBox="0 0 13 13" fill="none" xmlns="http://www.w3.org/2000/svg">
<path id="Vector" d="M12.2753 0.728839C11.9758 0.429254 11.5097 0.429254 11.2102 0.728839L6.50002 5.43898L1.78988 0.728839C1.49029 0.429254 1.02427 0.429254 0.724688 0.728839C0.425104 1.02842 0.425104 1.49444 0.724688 1.79403L5.43482 6.50417L0.724688 11.2143C0.425104 11.5139 0.425104 11.9799 0.724688 12.2795C0.874481 12.4293 1.05756 12.4959 1.25728 12.4959C1.45701 12.4959 1.64009 12.4293 1.78988 12.2795L6.50002 7.56936L11.2102 12.2795C11.3599 12.4293 11.543 12.4959 11.7427 12.4959C11.9425 12.4959 12.1255 12.4293 12.2753 12.2795C12.5749 11.9799 12.5749 11.5139 12.2753 11.2143L7.56521 6.50417L12.2753 1.79403C12.5583 1.49444 12.5583 1.02842 12.2753 0.728839Z" fill="white"/>
</svg>
