<svg width="702" height="151" viewBox="0 0 702 151" fill="none" xmlns="http://www.w3.org/2000/svg">
<path d="M104.52 0C97.1801 0 91.9102 5.43 91.9102 12.77C91.9102 16.1144 93.2387 19.3218 95.6035 21.6866C97.9684 24.0515 101.176 25.38 104.52 25.38C107.865 25.38 111.072 24.0515 113.437 21.6866C115.802 19.3218 117.13 16.1144 117.13 12.77C117.13 5.43 111.86 0 104.52 0Z" fill="#FFFFFF"/>
<path d="M113.929 35.6001H94.9395V114.45H113.929V35.6001Z" fill="#FFFFFF"/>
<path d="M148.1 7.66992H129.1V84.1199C129.1 105.68 141.84 116.21 160.57 116.5H170.23V98.7999H161.23C153.47 98.7999 148.12 94.5999 148.12 84.1199V52.8299H170.26V35.5999H148.1V7.66992Z" fill="#FFFFFF"/>
<path d="M242.86 75.6601C242.86 90.3401 234.56 97.8501 222.86 97.8501C210.86 97.8501 202.91 90.6601 202.91 75.6601V35.6001H184V75.6601C184 103.75 201.24 115.56 219.44 115.56C229.82 115.56 238.11 110.93 242.9 102.31V112.21C242.9 127.53 235.56 133.76 222.63 133.76C213.05 133.76 206.83 130.41 203.63 123.06H184.63C189.1 141.74 204.27 150.2 222.63 150.2C244.5 150.2 261.9 139.2 261.9 111.73V35.6001H242.9L242.86 75.6601Z" fill="#FFFFFF"/>
<path d="M277.559 39.4101V114.41H296.559V63.8501H325.999V46.6101H296.599V39.4101C296.599 27.2701 302.989 22.3301 312.249 22.3301H327.859V4.61011H312.209C291.609 4.61011 277.559 16.0901 277.559 39.4101Z" fill="#FFFFFF"/>
<path d="M394.72 76.6201C394.72 91.6201 386.72 98.8001 374.72 98.8001C362.72 98.8001 354.77 91.6201 354.77 76.6201V35.6201H335.77V76.6201C335.77 103.11 351.41 116.52 374.71 116.52C398.01 116.52 413.66 102.95 413.66 76.6201V35.6201H394.66L394.72 76.6201Z" fill="#FFFFFF"/>
<path d="M463.249 33.52C439.949 33.52 424.299 47.09 424.299 73.42V114.42H443.299V73.42C443.299 58.42 451.299 51.24 463.249 51.24C475.199 51.24 483.199 58.42 483.199 73.42V114.42H502.199V73.42C502.199 46.93 486.559 33.52 463.249 33.52Z" fill="#FFFFFF"/>
<path d="M575.2 47.0901C569.62 38.3101 560.2 33.5201 548.87 33.5201C529.71 33.5201 509.6 47.2501 509.6 74.2201C509.6 99.2801 527.16 116.52 552.22 116.52C576.96 116.52 594.22 99.9201 594.22 74.3801V1.12012H575.22L575.2 47.0901ZM552.06 98.8001C538.17 98.8001 528.76 88.9101 528.76 75.0201C528.76 61.1301 538.17 51.2401 552.06 51.2401C565.95 51.2401 575.2 61.1301 575.2 75.0001C575.2 88.8701 566 98.8001 552.06 98.8001Z" fill="#FFFFFF"/>
<path d="M42.9995 51.2501C53.5095 51.2501 61.5895 56.7401 64.9995 65.3101H84.3995C80.5195 46.4001 64.6795 33.3101 43.0195 33.3101C17.8095 33.3101 0.0195312 51.0901 0.0195312 75.3101C0.0195312 99.5301 17.7995 117.31 43.0195 117.31C64.6795 117.31 80.5195 104.22 84.3995 85.3101H64.9995C61.5795 93.9101 53.4995 99.4101 42.9995 99.4101C28.9395 99.4101 19.3995 89.4101 19.3995 75.3301C19.3995 61.2501 28.9295 51.2501 42.9995 51.2501Z" fill="#FFFFFF"/>
<path d="M696.91 93.5H683.49C680.927 93.5 678.85 95.5774 678.85 98.14V112.45C678.85 115.013 680.927 117.09 683.49 117.09H696.91C699.472 117.09 701.55 115.013 701.55 112.45V98.14C701.55 95.5774 699.472 93.5 696.91 93.5Z" fill="#48DC95"/>
<path d="M643.57 67.26C619.76 67.26 622.88 57.26 622.88 57.26C622.88 57.26 623.47 49.45 635.18 49.45C646.89 49.45 648.64 58.23 648.64 58.23H667.38C667.38 58.23 667.77 32.47 634.79 32.47C601.81 32.47 604.73 62.14 604.73 62.14C604.73 62.14 604.931 83.41 634.591 83.41C643.761 83.41 650.01 85.56 650.01 91.02C650.01 96.48 645.72 99.61 635.37 99.61C625.02 99.61 621.71 90.44 621.71 90.44H602.591C602.591 90.44 602 116 636.151 116C670.301 116 670.15 93 670.15 89.07C670.15 85.14 667.38 67.26 643.57 67.26Z" fill="#FFFFFF"/>
</svg>
