<svg width="1000" height="1001" viewBox="0 0 1000 1001" fill="none" xmlns="http://www.w3.org/2000/svg">
<rect width="1000" height="1000" transform="translate(0 0.5)" fill="#19232D"/>
<path d="M835.659 543.359H737.961C712.841 543.359 692.478 563.722 692.478 588.842V686.631C692.478 711.751 712.841 732.115 737.961 732.115H835.659C860.779 732.115 881.143 711.751 881.143 686.631V588.842C881.143 563.722 860.779 543.359 835.659 543.359Z" fill="#25E572"/>
<path d="M375.908 341.516C438.765 341.516 487.089 374.35 507.483 425.605H623.508C600.303 312.51 505.569 234.223 376.027 234.223C225.254 234.223 118.858 340.56 118.858 485.412C118.858 630.264 225.194 736.601 376.027 736.601C505.569 736.601 600.303 658.314 623.508 545.219H507.483C487.029 596.653 438.705 629.547 375.908 629.547C291.819 629.547 234.763 569.74 234.763 485.531C234.763 401.323 291.759 341.516 375.908 341.516Z" fill="white"/>
</svg>
