<svg width="30" height="29" viewBox="0 0 30 29" fill="none" xmlns="http://www.w3.org/2000/svg">
<g clip-path="url(#clip0_236_2396)">
<path d="M25.2997 5.02129C23.4514 4.17319 21.4693 3.54834 19.3969 3.19047C19.3591 3.18356 19.3214 3.20082 19.302 3.23534C19.0471 3.68872 18.7647 4.2802 18.567 4.7451C16.338 4.41139 14.1204 4.41139 11.9371 4.7451C11.7394 4.26987 11.4468 3.68872 11.1907 3.23534C11.1713 3.20197 11.1336 3.18471 11.0958 3.19047C9.02456 3.5472 7.04247 4.17204 5.19296 5.02129C5.17695 5.02819 5.16323 5.03971 5.15412 5.05466C1.39451 10.6714 0.364602 16.1501 0.869843 21.5609C0.872129 21.5873 0.886989 21.6126 0.907564 21.6287C3.38804 23.4503 5.79081 24.5562 8.14896 25.2892C8.1867 25.3007 8.22669 25.2869 8.25071 25.2559C8.80853 24.4941 9.30578 23.6909 9.73212 22.8462C9.75728 22.7967 9.73326 22.7381 9.68184 22.7185C8.89312 22.4193 8.1421 22.0545 7.41967 21.6403C7.36253 21.6069 7.35796 21.5252 7.41052 21.486C7.56255 21.3721 7.71462 21.2536 7.85978 21.1339C7.88604 21.1121 7.92264 21.1074 7.95352 21.1212C12.6996 23.2881 17.8377 23.2881 22.5277 21.1212C22.5586 21.1063 22.5952 21.1109 22.6226 21.1328C22.7678 21.2524 22.9198 21.3721 23.073 21.486C23.1256 21.5252 23.1222 21.6069 23.065 21.6403C22.3426 22.0626 21.5916 22.4193 20.8017 22.7173C20.7503 22.7369 20.7274 22.7967 20.7526 22.8462C21.1881 23.6897 21.6853 24.4929 22.2328 25.2547C22.2557 25.2869 22.2968 25.3007 22.3346 25.2892C24.7042 24.5562 27.1069 23.4503 29.5874 21.6287C29.6091 21.6126 29.6228 21.5885 29.6251 21.562C30.2298 15.3066 28.6123 9.87281 25.3374 5.0558C25.3294 5.03971 25.3157 5.02819 25.2997 5.02129ZM10.4409 18.2663C9.01198 18.2663 7.83462 16.9545 7.83462 15.3434C7.83462 13.7324 8.98915 12.4205 10.4409 12.4205C11.904 12.4205 13.0699 13.7439 13.0471 15.3434C13.0471 16.9545 11.8925 18.2663 10.4409 18.2663ZM20.077 18.2663C18.6481 18.2663 17.4708 16.9545 17.4708 15.3434C17.4708 13.7324 18.6253 12.4205 20.077 12.4205C21.5401 12.4205 22.7061 13.7439 22.6832 15.3434C22.6832 16.9545 21.5401 18.2663 20.077 18.2663Z" fill="black"/>
</g>
<defs>
<clipPath id="clip0_236_2396">
<rect width="29" height="28.9999" fill="white" transform="translate(0.75)"/>
</clipPath>
</defs>
</svg>
