<svg width="30" height="29" viewBox="0 0 30 29" fill="none" xmlns="http://www.w3.org/2000/svg">
<g clip-path="url(#clip0_236_2388)">
<path d="M29.875 14.4999C29.875 6.49184 23.3831 0 15.375 0C7.36687 0 0.875 6.49184 0.875 14.4999C0.875 21.7372 6.17741 27.7359 13.1094 28.8237V18.6913H9.42773V14.4999H13.1094V11.3054C13.1094 7.67137 15.2742 5.66404 18.5862 5.66404C20.1722 5.66404 21.832 5.94724 21.832 5.94724V9.51558H20.0037C18.2025 9.51558 17.6406 10.6334 17.6406 11.7812V14.4999H21.6621L21.0192 18.6913H17.6406V28.8237C24.5726 27.7359 29.875 21.7372 29.875 14.4999Z" fill="black"/>
</g>
<defs>
<clipPath id="clip0_236_2388">
<rect width="29" height="28.9999" fill="white" transform="translate(0.875)"/>
</clipPath>
</defs>
</svg>
