<svg width="1000" height="1001" viewBox="0 0 1000 1001" fill="none" xmlns="http://www.w3.org/2000/svg">
<rect width="1000" height="1000" transform="translate(0 0.5)" fill="#19232D"/>
<path d="M706.345 524.165H641.008C624.209 524.165 610.59 537.783 610.59 554.582V619.98C610.59 636.779 624.209 650.397 641.008 650.397H706.345C723.144 650.397 736.762 636.779 736.762 619.98V554.582C736.762 537.783 723.144 524.165 706.345 524.165Z" fill="#25E572"/>
<path d="M398.881 389.18C440.917 389.18 473.234 411.138 486.873 445.415H564.466C548.948 369.782 485.593 317.426 398.961 317.426C298.129 317.426 226.975 388.54 226.975 485.412C226.975 582.284 298.089 653.397 398.961 653.397C485.593 653.397 548.948 601.042 564.466 525.408H486.873C473.194 559.805 440.877 581.804 398.881 581.804C342.645 581.804 304.489 541.807 304.489 485.492C304.489 429.177 342.605 389.18 398.881 389.18Z" fill="white"/>
</svg>
