<svg width="512" height="512" viewBox="0 0 512 512" fill="none" xmlns="http://www.w3.org/2000/svg">
<rect width="512" height="512" fill="#1A1A1A"/>
<mask id="mask0_2357_5729" style="mask-type:luminance" maskUnits="userSpaceOnUse" x="0" y="0" width="512" height="512">
<rect width="512" height="512" fill="white"/>
</mask>
<g mask="url(#mask0_2357_5729)">
<path d="M279.437 169.082C264.65 151.638 245.153 138.821 223.277 132.161C201.4 125.502 178.069 125.282 156.071 131.529C144.113 135.817 132.973 142.111 123.13 150.14V128.07H64V383.859H122.8C122.8 344.989 122.8 306.118 122.8 267.247C122.8 258.682 122.8 250.776 123.953 241.553C123.927 234.138 125.396 226.794 128.271 219.959C131.147 213.125 135.371 206.94 140.69 201.775C146.009 196.609 152.315 192.568 159.231 189.894C166.147 187.22 173.531 185.968 180.942 186.211C195.844 184.487 210.824 188.708 222.634 197.958C234.444 207.208 242.13 220.742 244.025 235.623C246.393 251.096 247.275 266.759 246.66 282.4C246.66 315.341 246.66 349.765 246.66 384.189H304.637C304.637 331.318 307.601 281.412 304.637 232C304.746 208.546 295.706 185.975 279.437 169.082Z" fill="white"/>
<path d="M412.23 276.324H374.563C355.36 276.324 339.793 291.891 339.793 311.093V348.761C339.793 367.963 355.36 383.53 374.563 383.53H412.23C431.433 383.53 447 367.963 447 348.761V311.093C447 291.891 431.433 276.324 412.23 276.324Z" fill="#48DC95"/>
</g>
</svg>
