<svg width="21" height="20" viewBox="0 0 21 20" fill="none" xmlns="http://www.w3.org/2000/svg">
<g id="icon/flash">
<path id="Path" fill-rule="evenodd" clip-rule="evenodd" d="M10.8393 0.833344C10.577 0.833344 10.3343 0.978433 10.2115 1.21281H10.2087L5.22545 10.465H5.22824C5.16127 10.5766 5.125 10.705 5.125 10.8333C5.125 11.2268 5.44587 11.5476 5.83929 11.5476H8.69643V18.6905C8.69643 19.0839 9.0173 19.4048 9.41071 19.4048C9.67857 19.4048 9.92411 19.2541 10.0469 19.0141L15.058 9.70611L15.0552 9.70332C15.0971 9.61125 15.125 9.51359 15.125 9.40477C15.125 9.01136 14.8041 8.69049 14.4107 8.69049H11.5536V1.54763C11.5536 1.15421 11.2327 0.833344 10.8393 0.833344Z" fill="#48DC95"/>
</g>
</svg>
