<svg width="171" height="50" viewBox="0 0 171 50" fill="none" xmlns="http://www.w3.org/2000/svg">
<g id="googleplay">
<path id="path14" d="M163.812 50H6.62065C3.16402 50 0.333008 47.236 0.333008 43.8611V7.02778C0.333008 3.65293 3.16402 0.888897 6.62065 0.888897H163.812C167.268 0.888897 170.099 3.65293 170.099 7.02778V43.8611C170.099 47.236 167.268 50 163.812 50Z" fill="black"/>
<path id="path16" d="M163.812 1.87265C166.723 1.87265 169.092 4.18548 169.092 7.02778V43.8611C169.092 46.7034 166.723 49.0162 163.812 49.0162H6.62065C3.70947 49.0162 1.3406 46.7034 1.3406 43.8611V7.02778C1.3406 4.18548 3.70947 1.87265 6.62065 1.87265H163.812ZM163.812 0.888897H6.62065C3.16402 0.888897 0.333008 3.65293 0.333008 7.02778V43.8611C0.333008 47.236 3.16402 50 6.62065 50H163.812C167.268 50 170.099 47.236 170.099 43.8611V7.02778C170.099 3.65293 167.268 0.888897 163.812 0.888897Z" fill="#A6A6A6"/>
<g id="g18">
<path id="path20" d="M59.9619 13.4657C59.9619 14.4909 59.6475 15.312 59.0282 15.9244C58.3161 16.6503 57.3887 17.0155 56.2522 17.0155C55.166 17.0155 54.2385 16.6441 53.4777 15.9121C52.7154 15.1693 52.335 14.2577 52.335 13.1665C52.335 12.0753 52.7154 11.1637 53.4777 10.427C54.2385 9.68879 55.166 9.31738 56.2522 9.31738C56.7929 9.31738 57.3085 9.42635 57.8005 9.62893C58.2909 9.83305 58.6902 10.1093 58.9794 10.45L58.3224 11.0977C57.8178 10.516 57.1309 10.229 56.2522 10.229C55.4599 10.229 54.773 10.4991 54.1898 11.0439C53.6129 11.5903 53.3237 12.2978 53.3237 13.1665C53.3237 14.0351 53.6129 14.7488 54.1898 15.2951C54.773 15.8338 55.4599 16.1101 56.2522 16.1101C57.0931 16.1101 57.8005 15.8338 58.3585 15.289C58.7264 14.9283 58.9354 14.4311 58.9904 13.7957H56.2522V12.9086H59.9053C59.9493 13.1005 59.9619 13.2862 59.9619 13.4657Z" fill="white" stroke="white" stroke-width="0.16" stroke-miterlimit="10"/>
</g>
<g id="g22">
<path id="path24" d="M65.7574 10.3903H62.3259V12.7231H65.4195V13.6101H62.3259V15.9429H65.7574V16.8469H61.3545V9.48633H65.7574V10.3903Z" fill="white" stroke="white" stroke-width="0.16" stroke-miterlimit="10"/>
</g>
<g id="g26">
<path id="path28" d="M69.8477 16.8469H68.8763V10.3903H66.7715V9.48633H71.9541V10.3903H69.8477V16.8469Z" fill="white" stroke="white" stroke-width="0.16" stroke-miterlimit="10"/>
</g>
<g id="g30">
<path id="path32" d="M75.7041 16.8469V9.48633H76.674V16.8469H75.7041Z" fill="white" stroke="white" stroke-width="0.16" stroke-miterlimit="10"/>
</g>
<g id="g34">
<path id="path36" d="M80.9737 16.8469H80.0101V10.3903H77.8975V9.48633H83.0863V10.3903H80.9737V16.8469Z" fill="white" stroke="white" stroke-width="0.16" stroke-miterlimit="10"/>
</g>
<g id="g38">
<path id="path40" d="M92.8984 15.8998C92.1549 16.6441 91.2337 17.0155 90.135 17.0155C89.0299 17.0155 88.1088 16.6441 87.3652 15.8998C86.6233 15.157 86.2539 14.2454 86.2539 13.1665C86.2539 12.0876 86.6233 11.1759 87.3652 10.4331C88.1088 9.68879 89.0299 9.31738 90.135 9.31738C91.2274 9.31738 92.1486 9.68879 92.8921 10.4393C93.6403 11.1882 94.0097 12.0937 94.0097 13.1665C94.0097 14.2454 93.6403 15.157 92.8984 15.8998ZM88.0836 15.2828C88.6432 15.8338 89.3238 16.1101 90.135 16.1101C90.9398 16.1101 91.6267 15.8338 92.18 15.2828C92.738 14.7319 93.021 14.0244 93.021 13.1665C93.021 12.3086 92.738 11.601 92.18 11.0501C91.6267 10.4991 90.9398 10.2229 90.135 10.2229C89.3238 10.2229 88.6432 10.4991 88.0836 11.0501C87.5256 11.601 87.2426 12.3086 87.2426 13.1665C87.2426 14.0244 87.5256 14.7319 88.0836 15.2828Z" fill="white" stroke="white" stroke-width="0.16" stroke-miterlimit="10"/>
</g>
<g id="g42">
<path id="path44" d="M95.3721 16.8469V9.48633H96.551L100.217 15.2108H100.259L100.217 13.7958V9.48633H101.187V16.8469H100.174L96.3356 10.84H96.2932L96.3356 12.2611V16.8469H95.3721Z" fill="white" stroke="white" stroke-width="0.16" stroke-miterlimit="10"/>
</g>
<path id="path46" d="M86.0151 27.5962C83.0615 27.5962 80.6486 29.7908 80.6486 32.8188C80.6486 35.8223 83.0615 38.0399 86.0151 38.0399C88.975 38.0399 91.3879 35.8223 91.3879 32.8188C91.3879 29.7908 88.975 27.5962 86.0151 27.5962ZM86.0151 35.9834C84.3945 35.9834 83.0002 34.6774 83.0002 32.8188C83.0002 30.9357 84.3945 29.6527 86.0151 29.6527C87.6357 29.6527 89.0363 30.9357 89.0363 32.8188C89.0363 34.6774 87.6357 35.9834 86.0151 35.9834ZM74.3059 27.5962C71.346 27.5962 68.9394 29.7908 68.9394 32.8188C68.9394 35.8223 71.346 38.0399 74.3059 38.0399C77.2643 38.0399 79.6724 35.8223 79.6724 32.8188C79.6724 29.7908 77.2643 27.5962 74.3059 27.5962ZM74.3059 35.9834C72.6837 35.9834 71.2847 34.6774 71.2847 32.8188C71.2847 30.9357 72.6837 29.6527 74.3059 29.6527C75.9266 29.6527 77.3209 30.9357 77.3209 32.8188C77.3209 34.6774 75.9266 35.9834 74.3059 35.9834ZM60.3725 29.1969V31.4161H65.8003C65.6416 32.6561 65.2172 33.5678 64.5664 34.2031C63.7741 34.9705 62.5402 35.8223 60.3725 35.8223C57.0322 35.8223 54.4166 33.1902 54.4166 29.9289C54.4166 26.6677 57.0322 24.0356 60.3725 24.0356C62.1787 24.0356 63.4928 24.7247 64.4626 25.6179L66.0644 24.054C64.7079 22.7894 62.9033 21.8179 60.3725 21.8179C55.792 21.8179 51.9424 25.4568 51.9424 29.9289C51.9424 34.4011 55.792 38.0399 60.3725 38.0399C62.8483 38.0399 64.7079 37.248 66.1697 35.7624C67.6678 34.2998 68.1346 32.2433 68.1346 30.5827C68.1346 30.0671 68.0906 29.5928 68.012 29.1969H60.3725ZM117.348 30.9173C116.906 29.7494 115.543 27.5962 112.767 27.5962C110.017 27.5962 107.726 29.7125 107.726 32.8188C107.726 35.744 109.993 38.0399 113.032 38.0399C115.488 38.0399 116.906 36.5774 117.489 35.7256L115.666 34.5392C115.058 35.4079 114.229 35.9834 113.032 35.9834C111.842 35.9834 110.988 35.4509 110.441 34.4011L117.595 31.5112L117.348 30.9173ZM110.054 32.6561C109.993 30.6426 111.656 29.6112 112.848 29.6112C113.781 29.6112 114.574 30.0671 114.838 30.7193L110.054 32.6561ZM104.24 37.7223H106.591V22.375H104.24V37.7223ZM100.389 28.7595H100.31C99.7819 28.1487 98.7743 27.5962 97.4979 27.5962C94.8194 27.5962 92.3703 29.8921 92.3703 32.8357C92.3703 35.7624 94.8194 38.0399 97.4979 38.0399C98.7743 38.0399 99.7819 37.4828 100.31 36.8536H100.389V37.6025C100.389 39.5992 99.2962 40.672 97.5341 40.672C96.0973 40.672 95.2061 39.6591 94.8382 38.8073L92.7932 39.6407C93.3826 41.025 94.9435 42.7285 97.5341 42.7285C100.291 42.7285 102.618 41.1447 102.618 37.291V27.9138H100.389V28.7595ZM97.6991 35.9834C96.0785 35.9834 94.7219 34.6589 94.7219 32.8357C94.7219 30.9956 96.0785 29.6527 97.6991 29.6527C99.2962 29.6527 100.555 30.9956 100.555 32.8357C100.555 34.6589 99.2962 35.9834 97.6991 35.9834ZM128.358 22.375H122.733V37.7223H125.079V31.9072H128.358C130.962 31.9072 133.517 30.0671 133.517 27.1403C133.517 24.2152 130.956 22.375 128.358 22.375ZM128.419 29.7724H125.079V24.5098H128.419C130.17 24.5098 131.17 25.9295 131.17 27.1403C131.17 28.3282 130.17 29.7724 128.419 29.7724ZM142.917 27.567C141.222 27.567 139.46 28.2975 138.735 29.9167L140.817 30.7684C141.265 29.9167 142.088 29.6404 142.959 29.6404C144.176 29.6404 145.41 30.3541 145.429 31.6141V31.7752C145.004 31.5358 144.096 31.1813 142.978 31.1813C140.736 31.1813 138.452 32.386 138.452 34.6344C138.452 36.6909 140.288 38.0154 142.352 38.0154C143.931 38.0154 144.801 37.3202 145.348 36.5114H145.429V37.6977H147.694V31.8105C147.694 29.0894 145.612 27.567 142.917 27.567ZM142.634 35.9773C141.867 35.9773 140.798 35.6059 140.798 34.6774C140.798 33.4895 142.131 33.0337 143.284 33.0337C144.317 33.0337 144.801 33.2562 145.429 33.5493C145.245 34.9705 143.992 35.9773 142.634 35.9773ZM155.946 27.9031L153.25 34.5561H153.17L150.383 27.9031H147.854L152.042 37.2004L149.652 42.374H152.103L158.556 27.9031H155.946ZM134.806 37.7223H137.157V22.375H134.806V37.7223Z" fill="white"/>
<g id="g48">
<path id="path64" d="M13.4552 10.1447C13.0858 10.5222 12.8721 11.11 12.8721 11.8713V39.0236C12.8721 39.7848 13.0858 40.3726 13.4552 40.7501L13.5464 40.833L29.1303 25.6239V25.2648L13.5464 10.0557L13.4552 10.1447Z" fill="url(#paint0_linear_1519_8776)"/>
</g>
<g id="g66">
<path id="path78" d="M34.3197 30.6953L29.1309 25.6231V25.2639L34.326 20.1917L34.4423 20.2577L40.5948 23.6755C42.3506 24.6454 42.3506 26.2415 40.5948 27.2176L34.4423 30.6293L34.3197 30.6953Z" fill="url(#paint1_linear_1519_8776)"/>
</g>
<g id="g80">
<path id="path88" d="M34.4417 30.6298L29.1302 25.4439L13.4551 40.7497C14.0383 41.3483 14.9893 41.4204 16.0707 40.8219L34.4417 30.6298Z" fill="url(#paint2_linear_1519_8776)"/>
</g>
<g id="g90">
<path id="path104" d="M34.4417 20.2585L16.0707 10.0664C14.9893 9.47402 14.0383 9.54615 13.4551 10.1447L29.1302 25.4443L34.4417 20.2585Z" fill="url(#paint3_linear_1519_8776)"/>
</g>
</g>
<defs>
<linearGradient id="paint0_linear_1519_8776" x1="27.7467" y1="39.3063" x2="7.14752" y2="18.208" gradientUnits="userSpaceOnUse">
<stop stop-color="#00A0FF"/>
<stop offset="0.0066" stop-color="#00A1FF"/>
<stop offset="0.2601" stop-color="#00BEFF"/>
<stop offset="0.5122" stop-color="#00D2FF"/>
<stop offset="0.7604" stop-color="#00DFFF"/>
<stop offset="1" stop-color="#00E3FF"/>
</linearGradient>
<linearGradient id="paint1_linear_1519_8776" x1="42.8812" y1="25.4418" x2="12.4529" y2="25.4418" gradientUnits="userSpaceOnUse">
<stop stop-color="#FFE000"/>
<stop offset="0.4087" stop-color="#FFBD00"/>
<stop offset="0.7754" stop-color="#FFA500"/>
<stop offset="1" stop-color="#FF9C00"/>
</linearGradient>
<linearGradient id="paint2_linear_1519_8776" x1="31.5534" y1="22.6248" x2="3.6193" y2="-5.98616" gradientUnits="userSpaceOnUse">
<stop stop-color="#FF3A44"/>
<stop offset="1" stop-color="#C31162"/>
</linearGradient>
<linearGradient id="paint3_linear_1519_8776" x1="9.50933" y1="49.7836" x2="21.9832" y2="37.0076" gradientUnits="userSpaceOnUse">
<stop stop-color="#32A071"/>
<stop offset="0.0685" stop-color="#2DA771"/>
<stop offset="0.4762" stop-color="#15CF74"/>
<stop offset="0.8009" stop-color="#06E775"/>
<stop offset="1" stop-color="#00F076"/>
</linearGradient>
</defs>
</svg>
