<svg width="29" height="29" viewBox="0 0 29 29" fill="none" xmlns="http://www.w3.org/2000/svg">
<g id="icon/info" opacity="0.5">
<g id="Group">
<path id="Vector" fill-rule="evenodd" clip-rule="evenodd" d="M14.0337 2.66077C20.4877 2.66077 25.7197 7.89277 25.7197 14.3468C25.7197 20.8008 20.4877 26.0328 14.0337 26.0328C7.57966 26.0328 2.34766 20.8008 2.34766 14.3468C2.34766 7.89277 7.57966 2.66077 14.0337 2.66077ZM14.0337 12.0096C13.1731 12.0096 12.4755 12.7072 12.4755 13.5677V19.8002C12.4755 20.6608 13.1731 21.3584 14.0337 21.3584C14.8942 21.3584 15.5918 20.6608 15.5918 19.8002V13.5677C15.5918 12.7072 14.8942 12.0096 14.0337 12.0096ZM14.0337 7.33517C13.1731 7.33517 12.4755 8.03277 12.4755 8.8933C12.4755 9.75383 13.1731 10.4514 14.0337 10.4514C14.8942 10.4514 15.5918 9.75383 15.5918 8.8933C15.5918 8.03277 14.8942 7.33517 14.0337 7.33517Z" fill="#989B9F" fill-opacity="0.5"/>
</g>
</g>
</svg>
