<svg width="30" height="29" viewBox="0 0 30 29" fill="none" xmlns="http://www.w3.org/2000/svg">
<g clip-path="url(#clip0_236_2392)">
<path d="M14.625 2.61112C18.4992 2.61112 18.958 2.62811 20.4816 2.69608C21.8977 2.75839 22.6623 2.99628 23.1721 3.19452C23.8461 3.45506 24.3332 3.77225 24.8373 4.27635C25.3471 4.78611 25.6586 5.26756 25.9191 5.94158C26.1174 6.45134 26.3553 7.22165 26.4176 8.63199C26.4855 10.1613 26.5025 10.6201 26.5025 14.4886C26.5025 18.3628 26.4855 18.8216 26.4176 20.3452C26.3553 21.7612 26.1174 22.5259 25.9191 23.0356C25.6586 23.7097 25.3414 24.1968 24.8373 24.7009C24.3275 25.2106 23.8461 25.5222 23.1721 25.7827C22.6623 25.9809 21.892 26.2188 20.4816 26.2811C18.9523 26.3491 18.4936 26.3661 14.625 26.3661C10.7508 26.3661 10.292 26.3491 8.76836 26.2811C7.35234 26.2188 6.5877 25.9809 6.07793 25.7827C5.40391 25.5222 4.9168 25.205 4.4127 24.7009C3.90293 24.1911 3.59141 23.7097 3.33086 23.0356C3.13262 22.5259 2.89473 21.7556 2.83242 20.3452C2.76445 18.8159 2.74746 18.3571 2.74746 14.4886C2.74746 10.6144 2.76445 10.1556 2.83242 8.63199C2.89473 7.21598 3.13262 6.45134 3.33086 5.94158C3.59141 5.26756 3.90859 4.78045 4.4127 4.27635C4.92246 3.76659 5.40391 3.45506 6.07793 3.19452C6.5877 2.99628 7.35801 2.75839 8.76836 2.69608C10.292 2.62811 10.7508 2.61112 14.625 2.61112ZM14.625 0C10.6885 0 10.1957 0.0169921 8.64942 0.0849606C7.10879 0.152929 6.04961 0.402147 5.13203 0.758981C4.17481 1.13281 3.36484 1.62558 2.56055 2.43554C1.75059 3.23983 1.25781 4.04979 0.883984 5.00135C0.527148 5.92458 0.27793 6.97809 0.209961 8.51871C0.141992 10.0707 0.125 10.5634 0.125 14.4999C0.125 18.4364 0.141992 18.9292 0.209961 20.4755C0.27793 22.0161 0.527148 23.0753 0.883984 23.9929C1.25781 24.9501 1.75059 25.76 2.56055 26.5643C3.36484 27.3686 4.17481 27.8671 5.12637 28.2352C6.04961 28.5921 7.10313 28.8413 8.64375 28.9093C10.19 28.9772 10.6828 28.9942 14.6193 28.9942C18.5559 28.9942 19.0486 28.9772 20.5949 28.9093C22.1355 28.8413 23.1947 28.5921 24.1123 28.2352C25.0639 27.8671 25.8738 27.3686 26.6781 26.5643C27.4824 25.76 27.9809 24.9501 28.349 23.9985C28.7059 23.0753 28.9551 22.0218 29.0231 20.4812C29.091 18.9349 29.108 18.4421 29.108 14.5056C29.108 10.5691 29.091 10.0763 29.0231 8.53004C28.9551 6.98942 28.7059 5.93025 28.349 5.01267C27.9922 4.04979 27.4994 3.23983 26.6895 2.43554C25.8852 1.63124 25.0752 1.13281 24.1236 0.764645C23.2004 0.407811 22.1469 0.158593 20.6063 0.0906246C19.0543 0.0169921 18.5615 0 14.625 0Z" fill="black"/>
<path d="M14.625 7.05176C10.5129 7.05176 7.17676 10.3879 7.17676 14.5C7.17676 18.6121 10.5129 21.9482 14.625 21.9482C18.7371 21.9482 22.0732 18.6121 22.0732 14.5C22.0732 10.3879 18.7371 7.05176 14.625 7.05176ZM14.625 19.3314C11.9572 19.3314 9.79355 17.1677 9.79355 14.5C9.79355 11.8322 11.9572 9.66854 14.625 9.66854C17.2928 9.66854 19.4564 11.8322 19.4564 14.5C19.4564 17.1677 17.2928 19.3314 14.625 19.3314Z" fill="black"/>
<path d="M24.1066 6.75742C24.1066 7.7203 23.325 8.49628 22.3678 8.49628C21.4049 8.49628 20.6289 7.71464 20.6289 6.75742C20.6289 5.79453 21.4105 5.01855 22.3678 5.01855C23.325 5.01855 24.1066 5.80019 24.1066 6.75742Z" fill="black"/>
</g>
<defs>
<clipPath id="clip0_236_2392">
<rect width="29" height="28.9999" fill="white" transform="translate(0.125)"/>
</clipPath>
</defs>
</svg>
