<svg width="30" height="29" viewBox="0 0 30 29" fill="none" xmlns="http://www.w3.org/2000/svg">
<g clip-path="url(#clip0_236_2398)">
<path d="M27.2283 0H2.51602C1.33223 0 0.375 0.934566 0.375 2.09003V26.9042C0.375 28.0596 1.33223 28.9999 2.51602 28.9999H27.2283C28.4121 28.9999 29.375 28.0596 29.375 26.9098V2.09003C29.375 0.934566 28.4121 0 27.2283 0ZM8.97871 24.7122H4.67402V10.8693H8.97871V24.7122ZM6.82637 8.98316C5.44434 8.98316 4.32852 7.86735 4.32852 6.49099C4.32852 5.11463 5.44434 3.99881 6.82637 3.99881C8.20273 3.99881 9.31855 5.11463 9.31855 6.49099C9.31855 7.86168 8.20273 8.98316 6.82637 8.98316ZM25.0873 24.7122H20.7883V17.9833C20.7883 16.3804 20.76 14.313 18.551 14.313C16.3137 14.313 15.9738 16.0632 15.9738 17.87V24.7122H11.6805V10.8693H15.8039V12.7611H15.8605C16.4326 11.6736 17.8373 10.5238 19.9273 10.5238C24.283 10.5238 25.0873 13.3898 25.0873 17.1167V24.7122Z" fill="black"/>
</g>
<defs>
<clipPath id="clip0_236_2398">
<rect width="29" height="28.9999" fill="white" transform="translate(0.375)"/>
</clipPath>
</defs>
</svg>
