<svg width="20" height="20" viewBox="0 0 20 20" fill="none" xmlns="http://www.w3.org/2000/svg">
<g id="icon/lock">
<path id="Shape" fill-rule="evenodd" clip-rule="evenodd" d="M10.0767 2.49023C7.68881 2.49023 5.76673 4.44282 5.76673 6.86859V7.59832C4.97545 7.59832 4.33008 8.25393 4.33008 9.05777V16.355C4.33008 17.1589 4.97545 17.8145 5.76673 17.8145H14.3866C15.1779 17.8145 15.8233 17.1589 15.8233 16.355V9.05777C15.8233 8.25393 15.1779 7.59832 14.3866 7.59832V6.86859C14.3866 4.44282 12.4645 2.49023 10.0767 2.49023ZM10.0766 3.94972C11.7125 3.94972 12.9499 5.20679 12.9499 6.86863V7.59836H7.20334V6.86863C7.20334 5.20679 8.44076 3.94972 10.0766 3.94972ZM10.0766 11.247C10.8679 11.247 11.5133 11.9026 11.5133 12.7064C11.5133 13.5103 10.8679 14.1659 10.0766 14.1659C9.28536 14.1659 8.63999 13.5103 8.63999 12.7064C8.63999 11.9026 9.28536 11.247 10.0766 11.247Z" fill="white"/>
</g>
</svg>
