<svg width="249" height="71" viewBox="0 0 249 71" fill="none" xmlns="http://www.w3.org/2000/svg">
<path d="M23.79 19.72C19.173 19.7179 14.7258 21.461 11.34 24.6V20.17H0V69H11.65V44C11.65 34.87 16.51 30.49 23.79 30.49C31.07 30.49 35.94 34.88 35.94 44V69H47.5V44C47.5 27.88 38 19.72 23.79 19.72Z" fill="white"/>
<path d="M53.13 45.47C53.13 30.21 63.82 19.72 79.07 19.72C94.13 19.72 104.62 29.92 104.62 45.37V69H94V59.55C91.08 66.64 84.58 70.24 77 70.24C65.37 70.24 53.13 61.88 53.13 45.47ZM93.06 45C93.06 36.55 87.42 30.52 78.97 30.52C70.52 30.52 64.79 36.53 64.79 45C64.79 53.47 70.52 59.46 79 59.46C87.48 59.46 93.06 53.43 93.06 45Z" fill="white"/>
<path d="M110.25 44.5C110.25 28.08 122.49 19.72 134.15 19.72C141.04 19.72 146.78 22.64 150.15 27.98V0H161.71V44.59C161.71 60.13 151.22 70.24 136.16 70.24C120.93 70.24 110.25 59.75 110.25 44.5ZM150.18 44.98C150.18 36.53 144.54 30.5 136.09 30.5C127.64 30.5 121.91 36.5 121.91 44.98C121.91 53.46 127.64 59.46 136.09 59.46C144.54 59.46 150.18 53.43 150.18 45V44.98Z" fill="white"/>
<path d="M167.37 45.47C167.37 30.21 178.05 19.72 193.31 19.72C208.36 19.72 218.86 29.92 218.86 45.37V69H208.27V59.55C205.35 66.64 198.84 70.24 191.27 70.24C179.61 70.24 167.37 61.88 167.37 45.47ZM207.3 45C207.3 36.55 201.66 30.52 193.21 30.52C184.76 30.52 179 36.53 179 45C179 53.47 184.73 59.48 193.18 59.48C201.63 59.48 207.3 53.43 207.3 45Z" fill="white"/>
<path d="M243.78 48.25H233.04C230.279 48.25 228.04 50.4886 228.04 53.25V64C228.04 66.7614 230.279 69 233.04 69H243.78C246.541 69 248.78 66.7614 248.78 64V53.25C248.78 50.4886 246.541 48.25 243.78 48.25Z" fill="#25E572"/>
</svg>
