<svg xmlns="http://www.w3.org/2000/svg" viewBox="0 0 248.78 70.24"><defs><style>.cls-1{fill:#19232d;}.cls-2{fill:#48DC95;}</style></defs><g id="Layer_2" data-name="Layer 2"><g id="Layer_1-2" data-name="Layer 1"><path class="cls-1" d="M23.79,19.72A18.3,18.3,0,0,0,11.34,24.6V20.17H0V69H11.65V44c0-9.13,4.86-13.51,12.14-13.51S35.94,34.88,35.94,44V69H47.5V44C47.5,27.88,38,19.72,23.79,19.72Z"/><path class="cls-1" d="M53.13,45.47c0-15.26,10.69-25.75,25.94-25.75,15.06,0,25.55,10.2,25.55,25.65V69H94V59.55c-2.92,7.09-9.42,10.69-17,10.69C65.37,70.24,53.13,61.88,53.13,45.47ZM93.06,45c0-8.45-5.64-14.48-14.09-14.48S64.79,36.53,64.79,45,70.52,59.46,79,59.46,93.06,53.43,93.06,45Z"/><path class="cls-1" d="M110.25,44.5c0-16.42,12.24-24.78,23.9-24.78,6.89,0,12.63,2.92,16,8.26V0h11.56V44.59c0,15.54-10.49,25.65-25.55,25.65C120.93,70.24,110.25,59.75,110.25,44.5Zm39.93.48c0-8.45-5.64-14.48-14.09-14.48s-14.18,6-14.18,14.48,5.73,14.48,14.18,14.48S150.18,53.43,150.18,45Z"/><path class="cls-1" d="M167.37,45.47c0-15.26,10.68-25.75,25.94-25.75,15.05,0,25.55,10.2,25.55,25.65V69H208.27V59.55c-2.92,7.09-9.43,10.69-17,10.69C179.61,70.24,167.37,61.88,167.37,45.47ZM207.3,45c0-8.45-5.64-14.48-14.09-14.48S179,36.53,179,45s5.73,14.48,14.18,14.48S207.3,53.43,207.3,45Z"/><rect class="cls-2" x="228.04" y="48.25" width="20.74" height="20.75" rx="5"/></g></g></svg>