<svg width="30" height="29" viewBox="0 0 30 29" fill="none" xmlns="http://www.w3.org/2000/svg">
<g clip-path="url(#clip0_236_2390)">
<path d="M9.62311 26.2815C20.5638 26.2815 26.5496 17.2151 26.5496 9.35512C26.5496 9.10023 26.5439 8.83969 26.5326 8.58481C27.697 7.74272 28.7019 6.69969 29.5 5.5047C28.4155 5.98719 27.2642 6.3023 26.0851 6.43927C27.3265 5.69515 28.2561 4.52617 28.7014 3.14903C27.5335 3.84115 26.2563 4.32938 24.9246 4.59279C24.0273 3.63936 22.8409 3.00808 21.5488 2.79654C20.2567 2.58501 18.9309 2.805 17.7764 3.42251C16.6219 4.04002 15.703 5.02066 15.1617 6.2128C14.6205 7.40494 14.487 8.7422 14.7819 10.0178C12.4172 9.89914 10.1038 9.28484 7.99164 8.21474C5.87953 7.14464 4.01588 5.64262 2.5215 3.80606C1.76198 5.11556 1.52957 6.66512 1.8715 8.13982C2.21342 9.61452 3.10403 10.9037 4.36232 11.7453C3.41768 11.7153 2.49372 11.461 1.6668 11.0034V11.077C1.66595 12.4512 2.14103 13.7833 3.01129 14.8469C3.88155 15.9104 5.09327 16.6398 6.44047 16.9109C5.5654 17.1504 4.64698 17.1852 3.75627 17.0129C4.13642 18.1947 4.87607 19.2284 5.87197 19.9696C6.86788 20.7109 8.07035 21.1227 9.31158 21.1476C7.20435 22.8029 4.60129 23.7007 1.92168 23.6965C1.44647 23.6957 0.971732 23.6666 0.5 23.6092C3.2222 25.3557 6.38885 26.2832 9.62311 26.2815Z" fill="black"/>
</g>
<defs>
<clipPath id="clip0_236_2390">
<rect width="29" height="28.9999" fill="white" transform="translate(0.5)"/>
</clipPath>
</defs>
</svg>
