<svg xmlns:xlink="http://www.w3.org/1999/xlink" xmlns="http://www.w3.org/2000/svg" version="1.1" viewBox="0 0 739 141" height="141px" width="739px">
    <title>Verified Inc. Logo (horizontal, green, white check)</title>
    <g fill-rule="evenodd" fill="none" stroke-width="1" stroke="none" id="Verified-Inc.-Logo-(horizontal,-green,-white-check)">
        <g fill-rule="nonzero" fill="#0DBC3D" transform="translate(157.000000, 26.500000)" id="Verified-Inc.-(outlines,-replaced,-modified)">
            <g transform="translate(454.862459, 25.574000)" id="Inc.-(outlines)">
                <polygon points="14.2451835 61.0448012 0 61.0448012 0 0 14.2451835 0" id="Path"></polygon>
                <path id="Path" d="M25.5575352,61.0448012 L25.5575352,17.5969914 L33.6018741,17.5969914 C34.4118943,17.5969914 35.0892388,17.7785477 35.6339076,18.1416602 C36.1785764,18.5047727 36.5626377,19.0494415 36.7860916,19.7756666 L37.5402484,22.2895225 C38.3782003,21.507434 39.244084,20.7812089 40.1378995,20.1108473 C41.0317149,19.4404858 41.9883768,18.8748682 43.007885,18.4139946 C44.0273932,17.953121 45.1306967,17.5900085 46.3177953,17.324657 C47.5048939,17.0593056 48.7967365,16.9266298 50.1933232,16.9266298 C52.5675204,16.9266298 54.6693833,17.3386229 56.4989117,18.162609 C58.3284402,18.9865951 59.8716684,20.1317961 61.1285964,21.5982121 C62.3855243,23.064628 63.3352033,24.8103613 63.9776331,26.8354119 C64.6200629,28.8604625 64.9412779,31.0600864 64.9412779,33.4342837 L64.9412779,61.0448012 L51.9530223,61.0448012 L51.9530223,33.4342837 C51.9530223,31.311472 51.464217,29.6565169 50.4866063,28.4694183 C49.5089957,27.2823196 48.0705115,26.6887703 46.1711537,26.6887703 C44.7466353,26.6887703 43.4059122,26.9960194 42.1489842,27.6105175 C40.8920563,28.2250156 39.6909918,29.0490017 38.5457907,30.0824758 L38.5457907,61.0448012 L25.5575352,61.0448012 Z"></path>
                <path id="Path" d="M105.498153,27.9038007 C105.107109,28.3786401 104.730031,28.7557185 104.366918,29.0350358 C104.003806,29.3143532 103.487069,29.4540118 102.816707,29.4540118 C102.174277,29.4540118 101.594694,29.3003873 101.077957,28.9931382 C100.56122,28.6858892 99.9816362,28.3437255 99.3392063,27.9666471 C98.6967765,27.5895687 97.9426197,27.247405 97.076736,26.9401559 C96.2108523,26.6329069 95.1354806,26.4792823 93.8506209,26.4792823 C92.2585122,26.4792823 90.8828743,26.7725655 89.7237075,27.3591319 C88.5645406,27.9456983 87.6078787,28.7836503 86.8537219,29.8729878 C86.0995652,30.9623254 85.5409305,32.2960656 85.177818,33.8742085 C84.8147055,35.4523514 84.6331492,37.2329993 84.6331492,39.2161523 C84.6331492,43.3779804 85.4361865,46.5761638 87.0422611,48.8107024 C88.6483358,51.045241 90.8619255,52.1625103 93.6830305,52.1625103 C95.1913441,52.1625103 96.3854256,51.9739711 97.2652752,51.5968927 C98.1451248,51.2198143 98.8922986,50.8008383 99.5067967,50.3399647 C100.121295,49.8790912 100.686912,49.4531322 101.203649,49.062088 C101.720387,48.6710437 102.369799,48.4755216 103.151888,48.4755216 C104.185362,48.4755216 104.96745,48.8526 105.498153,49.6067568 L109.268937,54.2573902 C107.928214,55.7936355 106.517662,57.0435805 105.03728,58.0072253 C103.556898,58.9708701 102.041601,59.7250268 100.49139,60.2696956 C98.9411791,60.8143644 97.3839851,61.1914428 95.8198081,61.4009308 C94.255631,61.6104188 92.7333516,61.7151628 91.2529698,61.7151628 C88.5994552,61.7151628 86.0646505,61.2123916 83.6485557,60.2068492 C81.2324608,59.2013069 79.1096491,57.7418738 77.2801207,55.8285502 C75.4505922,53.9152265 73.9981421,51.561978 72.9227704,48.7688048 C71.8473987,45.9756316 71.3097129,42.7914141 71.3097129,39.2161523 C71.3097129,36.0877983 71.7775694,33.1619493 72.7132824,30.4386054 C73.6489954,27.7152615 75.0316162,25.3550301 76.8611447,23.3579112 C78.6906731,21.3607924 80.9531435,19.7896324 83.6485557,18.6444314 C86.3439678,17.4992304 89.4653389,16.9266298 93.0126689,16.9266298 C96.4203403,16.9266298 99.4090357,17.4712986 101.978755,18.5606362 C104.548474,19.6499738 106.866808,21.2420825 108.933756,23.3369624 L105.498153,27.9038007 Z"></path>
                <path id="Path" d="M112.36936,54.4668782 C112.36936,53.4613358 112.557899,52.5256228 112.934977,51.6597391 C113.312055,50.7938554 113.828793,50.0396986 114.485188,49.3972688 C115.141584,48.7548389 115.91669,48.2450848 116.810505,47.8680064 C117.70432,47.490928 118.681931,47.3023888 119.743337,47.3023888 C120.776811,47.3023888 121.740456,47.490928 122.634271,47.8680064 C123.528087,48.2450848 124.310175,48.7548389 124.980537,49.3972688 C125.650898,50.0396986 126.174618,50.7938554 126.551697,51.6597391 C126.928775,52.5256228 127.117314,53.4613358 127.117314,54.4668782 C127.117314,55.4724206 126.928775,56.4151165 126.551697,57.2949661 C126.174618,58.1748157 125.650898,58.9359554 124.980537,59.5783852 C124.310175,60.2208151 123.528087,60.7235863 122.634271,61.0866988 C121.740456,61.4498113 120.776811,61.6313676 119.743337,61.6313676 C118.681931,61.6313676 117.70432,61.4498113 116.810505,61.0866988 C115.91669,60.7235863 115.141584,60.2208151 114.485188,59.5783852 C113.828793,58.9359554 113.312055,58.1748157 112.934977,57.2949661 C112.557899,56.4151165 112.36936,55.4724206 112.36936,54.4668782 Z"></path>
            </g>
            <g transform="translate(-0.000000, -0.000000)" id="Verified-(outlines,-replaced,-modified,-green)">
                <path id="Path" d="M7.10542736e-15,2.668 L15.776,2.668 C17.4773333,2.668 18.8693333,3.05466667 19.952,3.828 C21.0346667,4.60133333 21.808,5.626 22.272,6.902 L38.628,52.142 C39.3626667,54.114 40.107,56.26 40.861,58.58 C41.615,60.9 42.3206667,63.336 42.978,65.888 C43.5193333,63.336 44.1476667,60.9 44.863,58.58 C45.5783333,56.26 46.284,54.114 46.98,52.142 L63.22,6.902 C63.6066667,5.81933333 64.3606667,4.843 65.482,3.973 C66.6033333,3.103 67.976,2.668 69.6,2.668 L85.492,2.668 L51.62,87.174 L33.872,87.174 L7.10542736e-15,2.668 Z"></path>
                <path id="Shape" d="M110.664,26.1 C114.646667,26.1 118.291,26.7186667 121.597,27.956 C124.903,29.1933333 127.745,30.9913333 130.123,33.35 C132.501,35.7086667 134.357,38.599 135.691,42.021 C137.025,45.443 137.692,49.3193333 137.692,53.65 C137.692,55.0033333 137.634,56.1053333 137.518,56.956 C137.402,57.8066667 137.189333,58.4833333 136.88,58.986 C136.570667,59.4886667 136.155,59.8366667 135.633,60.03 C135.111,60.2233333 134.444,60.32 133.632,60.32 L98.948,60.32 C99.528,65.3466667 101.055333,68.991 103.53,71.253 C106.004667,73.515 109.194667,74.646 113.1,74.646 C115.188,74.646 116.986,74.3946667 118.494,73.892 C120.002,73.3893333 121.345667,72.8286667 122.525,72.21 C123.704333,71.5913333 124.787,71.0306667 125.773,70.528 C126.759,70.0253333 127.793333,69.774 128.876,69.774 C130.306667,69.774 131.389333,70.296 132.124,71.34 L137.344,77.778 C135.488,79.9046667 133.487,81.635 131.341,82.969 C129.195,84.303 126.991,85.347 124.729,86.101 C122.467,86.855 120.205,87.377 117.943,87.667 C115.681,87.957 113.525333,88.102 111.476,88.102 C107.261333,88.102 103.307667,87.4156667 99.615,86.043 C95.9223333,84.6703333 92.6936667,82.6306667 89.929,79.924 C87.1643333,77.2173333 84.9796667,73.8533333 83.375,69.832 C81.7703333,65.8106667 80.968,61.132 80.968,55.796 C80.968,51.7746667 81.6543333,47.966 83.027,44.37 C84.3996667,40.774 86.3716667,37.6226667 88.943,34.916 C91.5143333,32.2093333 94.627,30.0633333 98.281,28.478 C101.935,26.8926667 106.062667,26.1 110.664,26.1 Z M111.012,38.512 C107.570667,38.512 104.883333,39.4883333 102.95,41.441 C101.016667,43.3936667 99.7406667,46.2066667 99.122,49.88 L121.568,49.88 C121.568,48.4493333 121.384333,47.0573333 121.017,45.704 C120.649667,44.3506667 120.050333,43.1423333 119.219,42.079 C118.387667,41.0156667 117.295333,40.1553333 115.942,39.498 C114.588667,38.8406667 112.945333,38.512 111.012,38.512 Z"></path>
                <path id="Path" d="M148.016,87.174 L148.016,27.028 L158.688,27.028 C159.577333,27.028 160.321667,27.1053333 160.921,27.26 C161.520333,27.4146667 162.023,27.6563333 162.429,27.985 C162.835,28.3136667 163.144333,28.7486667 163.357,29.29 C163.569667,29.8313333 163.753333,30.4886667 163.908,31.262 L164.894,36.888 C167.098,33.4853333 169.572667,30.798 172.318,28.826 C175.063333,26.854 178.06,25.868 181.308,25.868 C184.053333,25.868 186.257333,26.5253333 187.92,27.84 L185.6,41.064 C185.445333,41.876 185.136,42.4463333 184.672,42.775 C184.208,43.1036667 183.589333,43.268 182.816,43.268 C182.158667,43.268 181.385333,43.181 180.496,43.007 C179.606667,42.833 178.485333,42.746 177.132,42.746 C172.414667,42.746 168.702667,45.2593333 165.996,50.286 L165.996,87.174 L148.016,87.174 Z"></path>
                <path id="Shape" d="M214.484,27.028 L214.484,87.174 L196.504,87.174 L196.504,27.028 L214.484,27.028 Z M216.572,10.556 C216.572,11.9866667 216.282,13.3303333 215.702,14.587 C215.122,15.8436667 214.329333,16.9456667 213.324,17.893 C212.318667,18.8403333 211.149,19.5943333 209.815,20.155 C208.481,20.7156667 207.06,20.996 205.552,20.996 C204.082667,20.996 202.71,20.7156667 201.434,20.155 C200.158,19.5943333 199.027,18.8403333 198.041,17.893 C197.055,16.9456667 196.281667,15.8436667 195.721,14.587 C195.160333,13.3303333 194.88,11.9866667 194.88,10.556 C194.88,9.08666667 195.160333,7.714 195.721,6.438 C196.281667,5.162 197.055,4.04066667 198.041,3.074 C199.027,2.10733333 200.158,1.35333333 201.434,0.812 C202.71,0.270666667 204.082667,0 205.552,0 C207.06,0 208.481,0.270666667 209.815,0.812 C211.149,1.35333333 212.318667,2.10733333 213.324,3.074 C214.329333,4.04066667 215.122,5.162 215.702,6.438 C216.282,7.714 216.572,9.08666667 216.572,10.556 Z"></path>
                <path id="Shape" d="M330.423087,26.1 C334.405754,26.1 338.050087,26.7186667 341.356087,27.956 C344.662087,29.1933333 347.504087,30.9913333 349.882087,33.35 C352.260087,35.7086667 354.116087,38.599 355.450087,42.021 C356.784087,45.443 357.451087,49.3193333 357.451087,53.65 C357.451087,55.0033333 357.393087,56.1053333 357.277087,56.956 C357.161087,57.8066667 356.948421,58.4833333 356.639087,58.986 C356.329754,59.4886667 355.914087,59.8366667 355.392087,60.03 C354.870087,60.2233333 354.203087,60.32 353.391087,60.32 L318.707087,60.32 C319.287087,65.3466667 320.814421,68.991 323.289087,71.253 C325.763754,73.515 328.953754,74.646 332.859087,74.646 C334.947087,74.646 336.745087,74.3946667 338.253087,73.892 C339.761087,73.3893333 341.104754,72.8286667 342.284087,72.21 C343.463421,71.5913333 344.546087,71.0306667 345.532087,70.528 C346.518087,70.0253333 347.552421,69.774 348.635087,69.774 C350.065754,69.774 351.148421,70.296 351.883087,71.34 L357.103087,77.778 C355.247087,79.9046667 353.246087,81.635 351.100087,82.969 C348.954087,84.303 346.750087,85.347 344.488087,86.101 C342.226087,86.855 339.964087,87.377 337.702087,87.667 C335.440087,87.957 333.284421,88.102 331.235087,88.102 C327.020421,88.102 323.066754,87.4156667 319.374087,86.043 C315.681421,84.6703333 312.452754,82.6306667 309.688087,79.924 C306.923421,77.2173333 304.738754,73.8533333 303.134087,69.832 C301.529421,65.8106667 300.727087,61.132 300.727087,55.796 C300.727087,51.7746667 301.413421,47.966 302.786087,44.37 C304.158754,40.774 306.130754,37.6226667 308.702087,34.916 C311.273421,32.2093333 314.386087,30.0633333 318.040087,28.478 C321.694087,26.8926667 325.821754,26.1 330.423087,26.1 Z M330.771087,38.512 C327.329754,38.512 324.642421,39.4883333 322.709087,41.441 C320.775754,43.3936667 319.499754,46.2066667 318.881087,49.88 L341.327087,49.88 C341.327087,48.4493333 341.143421,47.0573333 340.776087,45.704 C340.408754,44.3506667 339.809421,43.1423333 338.978087,42.079 C338.146754,41.0156667 337.054421,40.1553333 335.701087,39.498 C334.347754,38.8406667 332.704421,38.512 330.771087,38.512 Z"></path>
                <path id="Shape" d="M409.999087,87.174 C408.877754,87.174 407.940087,86.9226667 407.186087,86.42 C406.432087,85.9173333 405.900421,85.1633333 405.591087,84.158 L404.199087,79.576 C403.000421,80.852 401.743754,82.012 400.429087,83.056 C399.114421,84.1 397.693421,84.999 396.166087,85.753 C394.638754,86.507 392.995421,87.087 391.236087,87.493 C389.476754,87.899 387.572421,88.102 385.523087,88.102 C382.391087,88.102 379.491087,87.406 376.823087,86.014 C374.155087,84.622 371.854421,82.6113333 369.921087,79.982 C367.987754,77.3526667 366.470087,74.1336667 365.368087,70.325 C364.266087,66.5163333 363.715087,62.176 363.715087,57.304 C363.715087,52.8186667 364.333754,48.6523333 365.571087,44.805 C366.808421,40.9576667 368.558087,37.6323333 370.820087,34.829 C373.082087,32.0256667 375.798421,29.8313333 378.969087,28.246 C382.139754,26.6606667 385.639087,25.868 389.467087,25.868 C392.560421,25.868 395.180087,26.3223333 397.326087,27.231 C399.472087,28.1396667 401.415087,29.3286667 403.155087,30.798 L403.155087,0.348 L421.135087,0.348 L421.135087,87.174 L409.999087,87.174 Z M391.787087,74.298 C393.101754,74.298 394.290754,74.1723333 395.354087,73.921 C396.417421,73.6696667 397.393754,73.312 398.283087,72.848 C399.172421,72.384 400.013421,71.804 400.806087,71.108 C401.598754,70.412 402.381754,69.6 403.155087,68.672 L403.155087,43.152 C401.763087,41.644 400.284087,40.5903333 398.718087,39.991 C397.152087,39.3916667 395.499087,39.092 393.759087,39.092 C392.096421,39.092 390.569087,39.4206667 389.177087,40.078 C387.785087,40.7353333 386.576754,41.789 385.552087,43.239 C384.527421,44.689 383.725087,46.574 383.145087,48.894 C382.565087,51.214 382.275087,54.0173333 382.275087,57.304 C382.275087,60.4746667 382.507087,63.1426667 382.971087,65.308 C383.435087,67.4733333 384.082754,69.223 384.914087,70.557 C385.745421,71.891 386.741087,72.848 387.901087,73.428 C389.061087,74.008 390.356421,74.298 391.787087,74.298 Z"></path>
                <path id="Path" d="M231.652,87.174 L231.652,39.382 L227.708,38.57 C226.354667,38.2606667 225.262333,37.7773333 224.431,37.12 C223.599667,36.4626667 223.184,35.496 223.184,34.22 L223.184,27.144 L231.652,27.144 L231.652,23.722 C231.652,20.2806667 232.203,17.168 233.305,14.384 C234.407,11.6 235.992333,9.222 238.061,7.25 C240.129667,5.278 242.652667,3.75066667 245.63,2.668 C248.607333,1.58533333 251.990667,1.044 255.78,1.044 C257.249333,1.044 258.612333,1.131 259.869,1.305 C261.125667,1.479 262.430667,1.75933333 263.784,2.146 L263.436,10.904 C263.397333,11.5226667 263.233,12.035 262.943,12.441 C262.653,12.847 262.295333,13.1756667 261.87,13.427 C261.444667,13.6783333 260.971,13.862 260.449,13.978 C259.927,14.094 259.414667,14.152 258.912,14.152 C257.326667,14.152 255.915333,14.3066667 254.678,14.616 C253.440667,14.9253333 252.406333,15.4763333 251.575,16.269 C250.743667,17.0616667 250.115333,18.1056667 249.69,19.401 C249.264667,20.6963333 249.052,22.33 249.052,24.302 L249.052,27.144 L263.204,27.144 L263.204,39.44 L249.632,39.44 L249.632,87.174 L231.652,87.174 Z"></path>
                <path id="Shape" d="M289.922667,27.028 L289.922667,87.174 L271.942667,87.174 L271.942667,27.028 L289.922667,27.028 Z M292.010667,10.556 C292.010667,11.9866667 291.720667,13.3303333 291.140667,14.587 C290.560667,15.8436667 289.768,16.9456667 288.762667,17.893 C287.757333,18.8403333 286.587667,19.5943333 285.253667,20.155 C283.919667,20.7156667 282.498667,20.996 280.990667,20.996 C279.521333,20.996 278.148667,20.7156667 276.872667,20.155 C275.596667,19.5943333 274.465667,18.8403333 273.479667,17.893 C272.493667,16.9456667 271.720333,15.8436667 271.159667,14.587 C270.599,13.3303333 270.318667,11.9866667 270.318667,10.556 C270.318667,9.08666667 270.599,7.714 271.159667,6.438 C271.720333,5.162 272.493667,4.04066667 273.479667,3.074 C274.465667,2.10733333 275.596667,1.35333333 276.872667,0.812 C278.148667,0.270666667 279.521333,9.09494702e-13 280.990667,9.09494702e-13 C282.498667,9.09494702e-13 283.919667,0.270666667 285.253667,0.812 C286.587667,1.35333333 287.757333,2.10733333 288.762667,3.074 C289.768,4.04066667 290.560667,5.162 291.140667,6.438 C291.720667,7.714 292.010667,9.08666667 292.010667,10.556 Z"></path>
            </g>
        </g>
        <g transform="translate(-0.201033, 0.000000)" id="Check-Mark">
            <g fill="#0DBC3D" id="Mark">
                <circle r="27.1589955" cy="70.6940212" cx="70.5" id="Oval"></circle>
                <g transform="translate(43.341005, 0.000000)" id="Group-10">
                    <circle r="27.1589955" cy="27.1589955" cx="27.1589955" id="Oval"></circle>
                    <circle r="27.1589955" cy="113.841005" cx="27.1589955" id="Oval"></circle>
                </g>
                <g transform="translate(70.500000, 70.694021) rotate(90.000000) translate(-70.500000, -70.694021) translate(43.341005, 0.194021)" id="Group-9">
                    <circle r="27.1589955" cy="27.1589955" cx="27.1589955" id="Oval"></circle>
                    <circle r="27.1589955" cy="113.841005" cx="27.1589955" id="Oval"></circle>
                </g>
                <g transform="translate(70.500000, 70.694021) rotate(45.000000) translate(-70.500000, -70.694021) translate(43.341005, 0.194021)" id="Group-9">
                    <circle r="27.1589955" cy="27.1589955" cx="27.1589955" id="Oval"></circle>
                    <circle r="27.1589955" cy="113.841005" cx="27.1589955" id="Oval"></circle>
                </g>
                <g transform="translate(70.500000, 70.694021) rotate(-45.000000) translate(-70.500000, -70.694021) translate(43.341005, 0.194021)" id="Group-9">
                    <circle r="27.1589955" cy="27.1589955" cx="27.1589955" id="Oval"></circle>
                    <circle r="27.1589955" cy="113.841005" cx="27.1589955" id="Oval"></circle>
                </g>
            </g>
            <g fill="#FFFFFF" transform="translate(32.618720, 41.434989)" id="Check">
                <path transform="translate(20.640447, 37.879710) rotate(45.000000) translate(-20.640447, -37.879710)" id="Rectangle" d="M8.45044694,29.3797103 L32.8304469,29.3797103 C35.0927878,29.3797103 37.1025465,30.2166504 38.8597229,31.8905308 C39.9996332,32.9833925 41.3304469,35.1856095 41.3304469,37.8845043 C41.3304469,40.6052139 39.916418,42.864287 38.8597229,43.8834675 C37.0919192,45.5476293 35.0821605,46.3797103 32.8304469,46.3797103 L8.45044694,46.3797103 C6.18135552,46.3797103 4.17690667,45.5476293 2.43710039,43.8834675 C1.43808266,42.9411829 -0.0495530572,40.7117306 -0.0495530572,37.8827444 C-0.0495530572,35.2110666 1.30498126,32.929815 2.43710039,31.8905308 C4.12716187,30.2166504 6.13161072,29.3797103 8.45044694,29.3797103 Z"></path>
                <path transform="translate(46.502482, 29.260079) rotate(-45.000000) translate(-46.502482, -29.260079)" id="Rectangle" d="M22.1224822,20.7600786 L70.8824822,20.7600786 C73.144823,20.7600786 75.1545817,21.5970188 76.9117582,23.2708991 C78.0516684,24.3637608 79.3824822,26.5659779 79.3824822,29.2648727 C79.3824822,31.9855823 77.9684533,34.2446553 76.9117582,35.2638358 C75.1439544,36.9279977 73.1341957,37.7600786 70.8824822,37.7600786 L22.1224822,37.7600786 C19.8533908,37.7600786 17.8489419,36.9279977 16.1091356,35.2638358 C15.1101179,34.3215512 13.6224822,32.0920989 13.6224822,29.2631127 C13.6224822,26.5914349 14.9770165,24.3101833 16.1091356,23.2708991 C17.7991971,21.5970188 19.803646,20.7600786 22.1224822,20.7600786 Z"></path>
            </g>
        </g>
    </g>
</svg>