<svg width="800" height="801" viewBox="0 0 800 801" fill="none" xmlns="http://www.w3.org/2000/svg">
<g clip-path="url(#clip0_36_4)">
<path d="M633.85 117.111H166.15C74.3877 117.111 0 191.499 0 283.261V517.061C0 608.823 74.3877 683.211 166.15 683.211H633.85C725.612 683.211 800 608.823 800 517.061V283.261C800 191.499 725.612 117.111 633.85 117.111ZM521.484 411.536L302.726 515.871C296.897 518.651 290.163 514.401 290.163 507.944V292.753C290.163 286.204 297.074 281.959 302.915 284.92L521.673 395.776C528.178 399.071 528.065 408.399 521.484 411.536Z" fill="black"/>
</g>
<defs>
<clipPath id="clip0_36_4">
<rect width="800" height="800" fill="white" transform="translate(0 0.160217)"/>
</clipPath>
</defs>
</svg>
